
<svg width="400" height="300" viewBox="0 0 400 300" fill="none" xmlns="http://www.w3.org/2000/svg">
  <rect width="400" height="300" fill="#F0F4F8"/>
  <rect x="120" y="60" width="160" height="180" rx="10" fill="#FFFFFF" stroke="#046F90" stroke-width="2"/>
  <rect x="140" y="80" width="120" height="140" rx="8" fill="#E6F7FF"/>
  <path d="M160 100H240" stroke="#046F90" stroke-width="2" stroke-linecap="round"/>
  <path d="M160 120H220" stroke="#046F90" stroke-width="2" stroke-linecap="round"/>
  <path d="M160 140H230" stroke="#046F90" stroke-width="2" stroke-linecap="round"/>
  <path d="M160 160H210" stroke="#046F90" stroke-width="2" stroke-linecap="round"/>
  <path d="M160 180H200" stroke="#046F90" stroke-width="2" stroke-linecap="round"/>
  <path d="M160 200H215" stroke="#046F90" stroke-width="2" stroke-linecap="round"/>
  
  <path d="M80 120C60 130 50 160 50 200" stroke="#A5CCF3" stroke-width="3" stroke-linecap="round" stroke-dasharray="4 4"/>
  <path d="M320 120C340 130 350 160 350 200" stroke="#A5CCF3" stroke-width="3" stroke-linecap="round" stroke-dasharray="4 4"/>
  
  <circle cx="50" cy="220" r="20" fill="#046F90"/>
  <path d="M45 215L55 225M55 215L45 225" stroke="#FFFFFF" stroke-width="2" stroke-linecap="round"/>
  
  <circle cx="350" cy="220" r="20" fill="#5192AE"/>
  <path d="M345 220H355M350 215V225" stroke="#FFFFFF" stroke-width="2" stroke-linecap="round"/>
  
  <rect x="140" y="30" width="120" height="20" rx="10" fill="#046F90"/>
  <text x="200" y="44" text-anchor="middle" font-family="Arial" font-size="12" fill="white">THERAPY NOTES</text>
  
  <path d="M90 240C90 230 105 220 120 220H280C295 220 310 230 310 240" stroke="#046F90" stroke-width="2"/>
  <rect x="140" y="240" width="120" height="20" rx="10" fill="#046F90"/>
  <text x="200" y="254" text-anchor="middle" font-family="Arial" font-size="12" fill="white">CRUSH AI</text>
</svg>
