
<svg width="400" height="300" viewBox="0 0 400 300" fill="none" xmlns="http://www.w3.org/2000/svg">
  <rect width="400" height="300" fill="#F0F4F8"/>
  <rect x="100" y="80" width="200" height="140" rx="8" fill="#FFFFFF" stroke="#046F90" stroke-width="2"/>
  <line x1="100" y1="120" x2="300" y2="120" stroke="#046F90" stroke-width="2"/>
  <text x="150" y="105" font-family="Arial" font-size="14" fill="#046F90">Traditional Scribe</text>
  <text x="280" y="105" text-anchor="end" font-family="Arial" font-size="14" fill="#046F90">$21,144</text>
  <rect x="100" y="120" width="200" height="40" fill="#F0F4F8"/>
  <text x="150" y="145" font-family="Arial" font-size="14" fill="#046F90">CRUSH AI</text>
  <text x="280" y="145" text-anchor="end" font-family="Arial" font-size="14" fill="#046F90">$0</text>
  <line x1="100" y1="160" x2="300" y2="160" stroke="#046F90" stroke-width="2"/>
  <text x="150" y="185" font-family="Arial" font-size="14" font-weight="bold" fill="#046F90">Yearly Savings</text>
  <text x="280" y="185" text-anchor="end" font-family="Arial" font-size="14" font-weight="bold" fill="#046F90">$21,144</text>
  <path d="M200 30L200 70" stroke="#046F90" stroke-width="2" stroke-dasharray="4 4"/>
  <circle cx="200" cy="40" r="20" fill="#5192AE"/>
  <path d="M192 40L198 46L208 36" stroke="#FFFFFF" stroke-width="2" stroke-linecap="round" stroke-linejoin="round"/>
  <path d="M350 150C330 150 320 130 320 110" stroke="#046F90" stroke-width="2" stroke-linecap="round" stroke-dasharray="4 4"/>
  <circle cx="350" cy="170" r="15" fill="#A5CCF3"/>
  <path d="M350 165L350 175" stroke="#FFFFFF" stroke-width="2" stroke-linecap="round"/>
  <path d="M345 170L355 170" stroke="#FFFFFF" stroke-width="2" stroke-linecap="round"/>
  <path d="M50 150C70 150 80 130 80 110" stroke="#046F90" stroke-width="2" stroke-linecap="round" stroke-dasharray="4 4"/>
  <circle cx="50" cy="170" r="15" fill="#046F90"/>
  <path d="M45 170L55 170" stroke="#FFFFFF" stroke-width="2" stroke-linecap="round"/>
  <rect x="130" y="220" width="140" height="30" rx="8" fill="#5192AE"/>
  <text x="200" y="240" text-anchor="middle" font-family="Arial" font-size="14" fill="white">CRUSH AI Scribe</text>
</svg>
