
<svg width="400" height="300" viewBox="0 0 400 300" fill="none" xmlns="http://www.w3.org/2000/svg">
  <rect width="400" height="300" fill="#F0F4F8"/>
  
  <!-- Center document with tabs -->
  <rect x="100" y="60" width="200" height="180" rx="8" fill="#FFFFFF" stroke="#046F90" stroke-width="2"/>
  
  <!-- Document tabs -->
  <rect x="110" y="60" width="60" height="20" rx="4 4 0 0" fill="#5192AE"/>
  <rect x="175" y="60" width="60" height="20" rx="4 4 0 0" fill="#E6F7FF"/>
  <rect x="240" y="60" width="50" height="20" rx="4 4 0 0" fill="#E6F7FF"/>
  
  <!-- Document content -->
  <rect x="120" y="100" width="160" height="10" rx="2" fill="#E6F7FF"/>
  <rect x="120" y="120" width="140" height="10" rx="2" fill="#E6F7FF"/>
  <rect x="120" y="140" width="160" height="10" rx="2" fill="#E6F7FF"/>
  
  <!-- Supplement symbols -->
  <circle cx="140" cy="180" r="10" fill="#5192AE"/>
  <text x="140" y="184" text-anchor="middle" font-family="Arial" font-size="12" fill="#FFFFFF">S</text>
  
  <circle cx="170" cy="180" r="10" fill="#5192AE"/>
  <text x="170" y="184" text-anchor="middle" font-family="Arial" font-size="12" fill="#FFFFFF">V</text>
  
  <circle cx="200" cy="180" r="10" fill="#5192AE"/>
  <text x="200" y="184" text-anchor="middle" font-family="Arial" font-size="12" fill="#FFFFFF">M</text>
  
  <circle cx="230" cy="180" r="10" fill="#5192AE"/>
  <text x="230" y="184" text-anchor="middle" font-family="Arial" font-size="12" fill="#FFFFFF">O</text>
  
  <!-- Lab test tubes -->
  <rect x="50" y="120" width="10" height="40" rx="5" fill="#5192AE" fill-opacity="0.5"/>
  <rect x="50" y="150" width="10" height="10" rx="5" fill="#5192AE"/>
  
  <rect x="70" y="110" width="10" height="50" rx="5" fill="#5192AE" fill-opacity="0.3"/>
  <rect x="70" y="150" width="10" height="10" rx="5" fill="#5192AE"/>
  
  <rect x="90" y="130" width="10" height="30" rx="5" fill="#5192AE" fill-opacity="0.7"/>
  <rect x="90" y="150" width="10" height="10" rx="5" fill="#5192AE"/>
  
  <!-- Health data symbols -->
  <rect x="320" y="100" width="30" height="20" rx="4" fill="#E6F7FF"/>
  <path d="M320 110H350" stroke="#5192AE" stroke-width="2"/>
  
  <rect x="320" y="130" width="30" height="20" rx="4" fill="#E6F7FF"/>
  <path d="M325 140L330 135L335 145L340 130L345 140" stroke="#5192AE" stroke-width="1.5"/>
  
  <rect x="320" y="160" width="30" height="20" rx="4" fill="#E6F7FF"/>
  <circle cx="335" cy="170" r="5" stroke="#5192AE" stroke-width="1.5" fill="none"/>
  <path d="M335 165V170M335 170H340" stroke="#5192AE" stroke-width="1.5"/>
  
  <!-- Title bar -->
  <rect x="120" y="30" width="160" height="20" rx="10" fill="#046F90"/>
  <text x="200" y="44" text-anchor="middle" font-family="Arial" font-size="10" fill="white">Functional Medicine</text>
  
  <!-- Bottom label -->
  <rect x="150" y="255" width="100" height="20" rx="10" fill="#5192AE"/>
  <text x="200" y="269" text-anchor="middle" font-family="Arial" font-size="10" fill="white">S10.AI Solution</text>
</svg>
