
<svg width="400" height="300" viewBox="0 0 400 300" fill="none" xmlns="http://www.w3.org/2000/svg">
  <rect width="400" height="300" fill="#F0F4F8"/>
  <rect x="80" y="60" width="240" height="180" rx="8" fill="#FFFFFF" stroke="#046F90" stroke-width="2"/>
  <path d="M120 200L180 160L240 180L300 120" stroke="#5192AE" stroke-width="4" stroke-linecap="round"/>
  <circle cx="120" cy="200" r="8" fill="#046F90"/>
  <circle cx="180" cy="160" r="8" fill="#046F90"/>
  <circle cx="240" cy="180" r="8" fill="#046F90"/>
  <circle cx="300" cy="120" r="8" fill="#046F90"/>
  <path d="M80 220H320" stroke="#046F90" stroke-width="2"/>
  <path d="M120 240V220" stroke="#046F90" stroke-width="2"/>
  <path d="M180 240V220" stroke="#046F90" stroke-width="2"/>
  <path d="M240 240V220" stroke="#046F90" stroke-width="2"/>
  <path d="M300 240V220" stroke="#046F90" stroke-width="2"/>
  <text x="120" y="255" text-anchor="middle" font-family="Arial" font-size="12" fill="#046F90">Q1</text>
  <text x="180" y="255" text-anchor="middle" font-family="Arial" font-size="12" fill="#046F90">Q2</text>
  <text x="240" y="255" text-anchor="middle" font-family="Arial" font-size="12" fill="#046F90">Q3</text>
  <text x="300" y="255" text-anchor="middle" font-family="Arial" font-size="12" fill="#046F90">Q4</text>
  <rect x="160" y="20" width="80" height="30" rx="8" fill="#046F90"/>
  <text x="200" y="40" text-anchor="middle" font-family="Arial" font-size="14" fill="white">$5,311</text>
  <path d="M200 50V80" stroke="#046F90" stroke-width="2" stroke-dasharray="4 4"/>
  <circle cx="200" cy="100" r="15" fill="#A5CCF3"/>
  <text x="200" y="104" text-anchor="middle" font-family="Arial" font-size="14" font-weight="bold" fill="#FFFFFF">$</text>
</svg>
